<?xml version="1.0" encoding="UTF-8"?>
<svg id="Calque_1" data-name="Calque 1" xmlns="http://www.w3.org/2000/svg" xmlns:xlink="http://www.w3.org/1999/xlink" viewBox="0 0 595.28 841.89">
  <defs>
    <style>
      .cls-1 {
        fill: #20494c;
      }

      .cls-2 {
        fill: #0b1819;
      }

      .cls-3 {
        opacity: .3;
      }

      .cls-4 {
        fill: #2b6166;
      }

      .cls-5 {
        fill: #419299;
      }

      .cls-6 {
        fill: url(#Dégradé_sans_nom_18);
      }

      .cls-7 {
        fill: #56c2cc;
      }

      .cls-8 {
        fill: #1d1d1b;
      }

      .cls-9 {
        fill: #163133;
      }

      .cls-10 {
        fill: url(#Dégradé_sans_nom_40);
      }
    </style>
    <radialGradient id="Dégradé_sans_nom_40" data-name="Dégradé sans nom 40" cx="297.53" cy="430.58" fx="297.53" fy="430.58" r="295" gradientUnits="userSpaceOnUse">
      <stop offset=".4" stop-color="#6cf3ff"/>
      <stop offset=".41" stop-color="#63dcea"/>
      <stop offset=".44" stop-color="#53b3c3"/>
      <stop offset=".47" stop-color="#448e9f"/>
      <stop offset=".5" stop-color="#386d80"/>
      <stop offset=".54" stop-color="#2d5267"/>
      <stop offset=".58" stop-color="#253c52"/>
      <stop offset=".63" stop-color="#1e2b42"/>
      <stop offset=".69" stop-color="#1a1f37"/>
      <stop offset=".77" stop-color="#171830"/>
      <stop offset="1" stop-color="#17172f"/>
    </radialGradient>
    <linearGradient id="Dégradé_sans_nom_18" data-name="Dégradé sans nom 18" x1="218.75" y1="272.51" x2="595.14" y2="665.87" gradientTransform="translate(48.11 -125.86) rotate(16.65)" gradientUnits="userSpaceOnUse">
      <stop offset="0" stop-color="#6cf3ff"/>
      <stop offset=".18" stop-color="#73e2ff"/>
      <stop offset=".52" stop-color="#87b7ff"/>
      <stop offset="1" stop-color="#a772ff"/>
    </linearGradient>
  </defs>
  <g>
    <circle class="cls-10" cx="297.53" cy="430.58" r="295"/>
    <g class="cls-3">
      <circle class="cls-2" cx="297.53" cy="430.58" r="295"/>
      <circle class="cls-9" cx="297.53" cy="430.58" r="265"/>
      <circle class="cls-1" cx="297.53" cy="430.58" r="245"/>
      <circle class="cls-4" cx="297.53" cy="430.58" r="215"/>
      <circle class="cls-5" cx="297.53" cy="430.58" r="190"/>
      <circle class="cls-7" cx="297.53" cy="430.58" r="165"/>
    </g>
  </g>
  <g id="Blackhole">
    <path class="cls-8" d="M407.84,461.85c-18.26,61.72-82.56,96.78-143.61,78.32-61.05-18.46-95.74-83.45-77.48-145.17s82.56-96.78,143.61-78.32c61.05,18.46,95.74,83.45,77.48,145.17Z"/>
    <path class="cls-6" d="M551.05,498.28c-60.96-30.84-123.83-124.45-133.28-138.89-16.99-30.33-45.15-54.32-80.79-65.1-34.99-10.58-70.86-6.5-101.18,8.71l.02-.06s-106.95,43.63-187.44,40.88c-12.49-.43-14.4,10.03-4.22,15.2,60.15,30.52,121.56,121.27,132.11,137.32,16.93,30.82,45.31,55.24,81.36,66.14,35.95,10.87,72.84,6.26,103.68-9.99,16.44-6.26,112.2-41.41,185.54-39.01,12.49.41,14.39-10.05,4.2-15.2ZM330.37,316.64c61.05,18.46,95.74,83.45,77.48,145.17-.08.29-.18.57-.26.85-66.44,11.53-171.93-19.93-221.08-66.83.08-.29.16-.58.25-.87,18.26-61.72,82.56-96.78,143.61-78.32ZM264.24,540.14c-50.21-15.18-82.58-61.84-82.34-112.26,53.42,48.02,140.25,73.92,212.33,63.85-27.13,42.47-79.66,63.63-129.99,48.41Z"/>
  </g>
</svg>